<svg width="24" height="24" viewBox="0 0 24 24" fill="none" xmlns="http://www.w3.org/2000/svg">
<g clip-path="url(#clip0_23_38)">
<path d="M13.9332 17.7396L20.0369 11.6042L13.9332 5.46885C13.8781 5.39646 13.8081 5.33676 13.7279 5.29379C13.6477 5.25082 13.5592 5.22559 13.4684 5.21979C13.3776 5.214 13.2866 5.22779 13.2016 5.26021C13.1166 5.29264 13.0395 5.34296 12.9756 5.40775C12.9117 5.47255 12.8625 5.55031 12.8313 5.63578C12.8001 5.72125 12.7876 5.81242 12.7947 5.90313C12.8018 5.99384 12.8283 6.08197 12.8724 6.16155C12.9165 6.24113 12.9772 6.3103 13.0504 6.36439L17.617 10.9691H5.4669C5.29845 10.9691 5.1369 11.036 5.01779 11.1551C4.89868 11.2742 4.83176 11.4358 4.83176 11.6042C4.83176 11.7727 4.89868 11.9342 5.01779 12.0534C5.1369 12.1725 5.29845 12.2394 5.4669 12.2394H17.617L13.0504 16.8441C12.9316 16.9637 12.8653 17.1256 12.8659 17.2941C12.8664 17.4627 12.934 17.6241 13.0536 17.7428C13.1732 17.8616 13.335 17.9279 13.5036 17.9274C13.6721 17.9268 13.8335 17.8592 13.9523 17.7396H13.9332Z" fill="#3D141A"/>
</g>
<defs>
<clipPath id="clip0_23_38">
<rect width="22.8648" height="22.8648" fill="white" transform="matrix(0 1 -1 0 23.8477 0.171875)"/>
</clipPath>
</defs>
</svg>
