<svg width="44" height="44" viewBox="0 0 44 44" fill="none" xmlns="http://www.w3.org/2000/svg">
<path d="M23.8846 3.66667C25.9471 3.67217 26.9939 3.68317 27.8977 3.70883L28.2534 3.72167C28.6641 3.73633 29.0692 3.75467 29.5587 3.77667C31.5094 3.86833 32.8404 4.17633 34.0082 4.62917C35.2182 5.09483 36.2376 5.7255 37.2569 6.743C38.1895 7.65918 38.9109 8.76787 39.3707 9.99167C39.8236 11.1595 40.1316 12.4905 40.2232 14.443C40.2452 14.9307 40.2636 15.3358 40.2782 15.7483L40.2892 16.104C40.3167 17.006 40.3277 18.0528 40.3314 20.1153L40.3332 21.483V23.8847C40.3377 25.2219 40.3236 26.5591 40.2911 27.896L40.2801 28.2517C40.2654 28.6642 40.2471 29.0693 40.2251 29.557C40.1334 31.5095 39.8217 32.8387 39.3707 34.0083C38.9109 35.2321 38.1895 36.3408 37.2569 37.257C36.3407 38.1896 35.232 38.911 34.0082 39.3708C32.8404 39.8237 31.5094 40.1317 29.5587 40.2233L28.2534 40.2783L27.8977 40.2893C26.9939 40.315 25.9471 40.3278 23.8846 40.3315L22.5169 40.3333H20.1171C18.7792 40.3381 17.4414 40.324 16.1039 40.2912L15.7482 40.2802C15.313 40.2637 14.8779 40.2447 14.4429 40.2233C12.4922 40.1317 11.1612 39.8237 9.99157 39.3708C8.76843 38.9108 7.66038 38.1894 6.74474 37.257C5.81147 36.341 5.08944 35.2323 4.62907 34.0083C4.17624 32.8405 3.86824 31.5095 3.77657 29.557L3.72157 28.2517L3.7124 27.896C3.67861 26.5592 3.66333 25.2219 3.66657 23.8847V20.1153C3.6615 18.7781 3.67494 17.4409 3.7069 16.104L3.71974 15.7483C3.7344 15.3358 3.75274 14.9307 3.77474 14.443C3.8664 12.4905 4.1744 11.1613 4.62724 9.99167C5.08868 8.76736 5.81198 7.65863 6.74657 6.743C7.66168 5.81084 8.76908 5.08947 9.99157 4.62917C11.1612 4.17633 12.4904 3.86833 14.4429 3.77667C14.9306 3.75467 15.3376 3.73633 15.7482 3.72167L16.1039 3.71067C17.4408 3.67809 18.778 3.66404 20.1152 3.6685L23.8846 3.66667ZM21.9999 12.8333C19.5688 12.8333 17.2372 13.7991 15.5181 15.5182C13.799 17.2373 12.8332 19.5689 12.8332 22C12.8332 24.4312 13.799 26.7627 15.5181 28.4818C17.2372 30.2009 19.5688 31.1667 21.9999 31.1667C24.4311 31.1667 26.7626 30.2009 28.4817 28.4818C30.2008 26.7627 31.1666 24.4312 31.1666 22C31.1666 19.5689 30.2008 17.2373 28.4817 15.5182C26.7626 13.7991 24.4311 12.8333 21.9999 12.8333ZM21.9999 16.5C22.7222 16.4999 23.4374 16.642 24.1047 16.9183C24.7721 17.1946 25.3785 17.5996 25.8893 18.1103C26.4001 18.6209 26.8053 19.2272 27.0818 19.8944C27.3583 20.5616 27.5007 21.2768 27.5008 21.9991C27.5009 22.7214 27.3588 23.4366 27.0825 24.1039C26.8062 24.7713 26.4012 25.3776 25.8906 25.8884C25.3799 26.3992 24.7737 26.8045 24.1064 27.081C23.4392 27.3575 22.724 27.4999 22.0017 27.5C20.543 27.5 19.1441 26.9205 18.1126 25.8891C17.0812 24.8576 16.5017 23.4587 16.5017 22C16.5017 20.5413 17.0812 19.1424 18.1126 18.1109C19.1441 17.0795 20.543 16.5 22.0017 16.5M31.6267 10.0833C31.0189 10.0833 30.4361 10.3248 30.0063 10.7545C29.5765 11.1843 29.3351 11.7672 29.3351 12.375C29.3351 12.9828 29.5765 13.5657 30.0063 13.9955C30.4361 14.4252 31.0189 14.6667 31.6267 14.6667C32.2345 14.6667 32.8174 14.4252 33.2472 13.9955C33.677 13.5657 33.9184 12.9828 33.9184 12.375C33.9184 11.7672 33.677 11.1843 33.2472 10.7545C32.8174 10.3248 32.2345 10.0833 31.6267 10.0833Z" fill="#F5EADA"/>
</svg>
