<svg width="40" height="41" viewBox="0 0 40 41" fill="none" xmlns="http://www.w3.org/2000/svg">
<path d="M10.8618 18.5252C13.2245 23.1685 17.0311 26.9587 21.6744 29.3378L25.2841 25.7281C25.7271 25.2851 26.3834 25.1375 26.9577 25.3344C28.7953 25.9414 30.7807 26.2696 32.8152 26.2696C33.7176 26.2696 34.456 27.0079 34.456 27.9104V33.6366C34.456 34.539 33.7176 35.2774 32.8152 35.2774C17.4084 35.2774 4.92224 22.7912 4.92224 7.38441C4.92224 6.482 5.66058 5.74365 6.563 5.74365H12.3057C13.2081 5.74365 13.9464 6.482 13.9464 7.38441C13.9464 9.43537 14.2746 11.4043 14.8817 13.2419C15.0622 13.8162 14.9309 14.4561 14.4715 14.9155L10.8618 18.5252Z" fill="white"/>
</svg>
