<svg width="44" height="44" viewBox="0 0 44 44" fill="none" xmlns="http://www.w3.org/2000/svg">
<path d="M22.0018 3.66667C32.1273 3.66667 40.3352 11.8745 40.3352 22C40.3352 32.1255 32.1273 40.3333 22.0018 40.3333C18.7619 40.3389 15.5789 39.4815 12.7802 37.8492L3.67582 40.3333L6.15449 31.2253C4.52091 28.4257 3.66281 25.2414 3.66849 22C3.66849 11.8745 11.8763 3.66667 22.0018 3.66667ZM15.7538 13.3833L15.3872 13.398C15.1501 13.4143 14.9185 13.4766 14.7052 13.5813C14.5064 13.6941 14.3248 13.8349 14.1662 13.9993C13.9462 14.2065 13.8215 14.3862 13.6877 14.5603C13.0095 15.442 12.6444 16.5244 12.65 17.6367C12.6537 18.535 12.8883 19.4095 13.255 20.2272C14.0048 21.8808 15.2387 23.6317 16.8667 25.2542C17.259 25.6447 17.644 26.037 18.0583 26.4018C20.0813 28.1827 22.4918 29.4671 25.0983 30.1528L26.1397 30.3123C26.4788 30.3307 26.818 30.305 27.159 30.2885C27.6928 30.2603 28.2141 30.1158 28.6862 29.865C28.926 29.741 29.1603 29.6064 29.3883 29.4617C29.3883 29.4617 29.4659 29.4091 29.6175 29.2967C29.865 29.1133 30.0172 28.9832 30.2225 28.7687C30.3765 28.6098 30.5048 28.4252 30.6075 28.215C30.7505 27.9162 30.8935 27.346 30.9522 26.8712C30.9962 26.5082 30.9833 26.3102 30.9778 26.1873C30.9705 25.9912 30.8073 25.7877 30.6295 25.7015L29.5625 25.223C29.5625 25.223 27.9675 24.5282 26.9922 24.0845C26.8901 24.0401 26.7807 24.0146 26.6695 24.0093C26.544 23.9962 26.4172 24.0102 26.2977 24.0504C26.1781 24.0906 26.0686 24.156 25.9765 24.2422C25.9673 24.2385 25.8445 24.343 24.519 25.949C24.4429 26.0512 24.3381 26.1285 24.218 26.1709C24.0978 26.2134 23.9677 26.2191 23.8443 26.1873C23.7248 26.1555 23.6078 26.1151 23.4942 26.0663C23.2668 25.971 23.188 25.9343 23.0322 25.8683C21.9796 25.4098 21.0053 24.7894 20.1447 24.0295C19.9137 23.8278 19.6992 23.6078 19.4792 23.3952C18.7579 22.7044 18.1294 21.923 17.6092 21.0705L17.501 20.8963C17.4245 20.7786 17.3617 20.6525 17.314 20.5205C17.2443 20.251 17.4258 20.0347 17.4258 20.0347C17.4258 20.0347 17.8713 19.547 18.0785 19.283C18.2802 19.0263 18.4507 18.777 18.5607 18.5992C18.777 18.2508 18.8448 17.8933 18.7312 17.6165C18.2178 16.3625 17.6874 15.1152 17.1398 13.8747C17.0317 13.629 16.7108 13.453 16.4193 13.4182C16.3203 13.4059 16.2213 13.3962 16.1223 13.3888C15.8762 13.3747 15.6293 13.3772 15.3835 13.3962L15.7538 13.3833Z" fill="#F5EADA"/>
</svg>
